<?xml version="1.0" encoding="utf-8"?>
<!-- Generator: Adobe Illustrator 19.0.0, SVG Export Plug-In . SVG Version: 6.00 Build 0)  -->
<svg version="1.1" xmlns="http://www.w3.org/2000/svg" xmlns:xlink="http://www.w3.org/1999/xlink" x="0px" y="0px"
	 viewBox="0 0 895.8 165.9" style="enable-background:new 0 0 895.8 165.9;" xml:space="preserve">
<style type="text/css">
	.st0{fill:#FFFFFF;}
	.st1{fill:#F1F2F2;}
</style>
<g id="Background">
</g>
<g id="Object">
	<g>
		<path d="M525.8,96.9c11.2-2.8,31-7.1,56.7-9.7c15.1-1.5,30.6-2.3,46.1-2.3c39.7,0,78.6,5.1,115.5,15
			c38.2,10.3,71.3,15.5,98.6,15.5c37.7,0,54.6-10,60.8-15.3h21.8V85.3h-24.8l-3.6-0.1l-2.2,2.8c-0.6,0.6-7.3,7.2-26.4,10.6
			c-7.5,1.3-16,2-25.5,2c-26.1,0-58.1-5.1-94.9-15C709.9,75.2,669.7,70,628.6,70c-16,0-32,0.8-47.6,2.4c-24.1,2.5-43.1,6.3-55.2,9.2
			V96.9z"/>
		<path class="st0" d="M525.8,93.1c11.5-2.9,31.1-7,56.4-9.6c38.3-3.9,97.6-4.8,162.9,12.8c115,31.1,150.1,6.6,157,0.1h19.5V89
			h-21.1l-1.8,0l-1.1,1.4c-0.1,0.1-6.9,8-28.6,11.8c-20.3,3.6-57.9,4.2-122-13.1c-43.5-11.8-84.4-15.4-118.4-15.4
			c-17.9,0-33.8,1-47.2,2.4c-24.6,2.5-43.7,6.4-55.6,9.3V93.1z"/>
		<path class="st1" d="M745.1,96.3c115,31.1,150.1,6.6,157,0.1h19.5v-2.3h-19.5c-6.9,6.5-42,31-157-0.1
			c-65.3-17.7-124.6-16.7-162.9-12.8c-25.3,2.6-44.8,6.7-56.4,9.6v2.3c11.5-2.9,31.1-7,56.4-9.6C620.4,79.6,679.8,78.7,745.1,96.3z"
			/>
		<path d="M370,96.9c-11.2-2.8-31-7.1-56.7-9.7c-15.1-1.5-30.6-2.3-46.1-2.3c-39.7,0-78.6,5.1-115.4,15
			c-38.2,10.3-71.3,15.5-98.6,15.5c-37.7,0-54.6-10-60.8-15.3h-21.8V85.3h24.8l3.6-0.1L1.1,88c0.6,0.6,7.3,7.2,26.4,10.6
			c7.5,1.3,16,2,25.5,2c26.1,0,58.1-5.1,94.9-15C186,75.2,226.1,70,267.2,70c16,0,32,0.8,47.6,2.4c24.1,2.5,43.1,6.3,55.2,9.2V96.9z
			"/>
		<path class="st0" d="M370,93.1c-11.5-2.9-31.1-7-56.3-9.6c-38.3-3.9-97.6-4.8-162.9,12.8c-115,31.1-150.1,6.6-157,0.1h-19.5V89
			h21.1l1.8,0l1.1,1.4c0.1,0.1,6.9,8,28.6,11.8c20.3,3.6,57.9,4.2,122-13.1c43.5-11.8,84.4-15.4,118.4-15.4c17.9,0,33.8,1,47.2,2.4
			c24.6,2.5,43.7,6.4,55.6,9.3V93.1z"/>
		<path class="st1" d="M150.8,96.3c-115,31.1-150.1,6.6-157,0.1h-19.5v-2.3h19.5c6.9,6.5,42,31,157-0.1
			c65.3-17.7,124.6-16.7,162.9-12.8c25.3,2.6,44.8,6.7,56.3,9.6v2.3c-11.5-2.9-31.1-7-56.3-9.6C275.4,79.6,216.1,78.7,150.8,96.3z"
			/>
		<path class="st1" d="M484.8,100.4c0-2.2-1.7-3.9-3.9-3.9h-32.6c-2.2,0-3.9,1.7-3.9,3.9l0,0c0,2.2,1.7,3.9,3.9,3.9h32.6
			C483,104.3,484.8,102.5,484.8,100.4L484.8,100.4z"/>
		<path class="st0" d="M448.3,100.4h32.6c1.4,0,2.7-0.8,3.4-1.9c0.3,0.6,0.5,1.2,0.5,1.9c0,2.2-1.7,3.9-3.9,3.9h-32.6
			c-2.2,0-3.9-1.7-3.9-3.9c0-0.7,0.2-1.4,0.5-1.9C445.6,99.6,446.9,100.4,448.3,100.4z"/>
		<path d="M486.6,100.4c0,3.2-2.6,5.8-5.8,5.8h-32.6c-3.2,0-5.8-2.6-5.8-5.8c0-3.2,2.6-5.8,5.8-5.8h32.6
			C484.1,94.6,486.6,97.2,486.6,100.4z M480.9,102.4c1.1,0,2-0.9,2-2c0-1.1-0.9-2-2-2h-32.6c-1.1,0-2,0.9-2,2c0,1.1,0.9,2,2,2H480.9
			z"/>
		<path class="st1" d="M484.8,65.5c0-2.2-1.7-3.9-3.9-3.9h-32.6c-2.2,0-3.9,1.7-3.9,3.9l0,0c0,2.2,1.7,3.9,3.9,3.9h32.6
			C483,69.4,484.8,67.7,484.8,65.5L484.8,65.5z"/>
		<path class="st0" d="M448.3,65.5h32.6c1.4,0,2.7-0.8,3.4-1.9c0.3,0.6,0.5,1.2,0.5,1.9c0,2.2-1.7,3.9-3.9,3.9h-32.6
			c-2.2,0-3.9-1.7-3.9-3.9c0-0.7,0.2-1.4,0.5-1.9C445.6,64.7,446.9,65.5,448.3,65.5z"/>
		<path d="M486.6,65.5c0,3.2-2.6,5.8-5.8,5.8h-32.6c-3.2,0-5.8-2.6-5.8-5.8c0-3.2,2.6-5.8,5.8-5.8h32.6
			C484.1,59.7,486.6,62.3,486.6,65.5z M480.9,67.5c1.1,0,2-0.9,2-2c0-1.1-0.9-2-2-2h-32.6c-1.1,0-2,0.9-2,2c0,1.1,0.9,2,2,2H480.9z"
			/>
		<path class="st0" d="M552.8,91.2h-31.4V74.7h31.4c4.1,0,7.4,3.3,7.4,7.4v1.6C560.2,87.9,556.9,91.2,552.8,91.2z"/>
		<path class="st1" d="M552.8,91.2h-31.4v-5h27.8c4.1,0,7.4-3.3,7.4-7.4v-1.6c0-0.5,0-0.9-0.1-1.4c2.2,1.3,3.7,3.7,3.7,6.4v1.6
			C560.2,87.9,556.9,91.2,552.8,91.2z"/>
		<path d="M562.1,82.1v1.6c0,5.1-4.2,9.3-9.3,9.3h-31.4c-1,0-1.9-0.8-1.9-1.9V74.7c0-1,0.8-1.9,1.9-1.9h31.4
			C557.9,72.8,562.1,77,562.1,82.1z M523.3,89.3h29.5c3.1,0,5.5-2.5,5.5-5.5v-1.6c0-3.1-2.5-5.5-5.5-5.5h-29.5V89.3z"/>
		<path class="st0" d="M507.7,116.8h-32.1c-4.3,0-7.8-3.5-7.8-7.8V56.8c0-4.3,3.5-7.8,7.8-7.8h32.1V116.8z"/>
		<rect x="497.8" y="49.1" class="st1" width="11.3" height="67.7"/>
		<path d="M509.6,49.1v67.7c0,1-0.8,1.9-1.9,1.9h-32.1c-5.3,0-9.6-4.3-9.6-9.6V56.8c0-5.3,4.3-9.6,9.6-9.6h32.1
			C508.8,47.2,509.6,48.1,509.6,49.1z M505.8,114.9V51h-30.2c-3.2,0-5.9,2.6-5.9,5.9v52.2c0,3.2,2.6,5.9,5.9,5.9H505.8z"/>
		<path class="st0" d="M514.8,52.7c0-3.3-2.5-6-5.6-6l0,0c-3.1,0-5.7,2.7-5.7,6v60.4c0,3.3,2.5,6,5.7,6l0,0c3.1,0,5.6-2.7,5.6-6
			V52.7z"/>
		<path class="st1" d="M509.1,119.2c-1,0-2-0.3-2.8-0.8c1.7-1,2.8-3,2.8-5.2V52.7c0-2.2-1.1-4.1-2.8-5.2c0.8-0.5,1.8-0.8,2.8-0.8
			c3.1,0,5.6,2.7,5.6,6v60.4C514.8,116.5,512.2,119.2,509.1,119.2z"/>
		<path d="M516.6,52.7v60.4c0,4.3-3.4,7.9-7.5,7.9c-4.2,0-7.5-3.5-7.5-7.9V52.7c0-4.3,3.4-7.9,7.5-7.9
			C513.3,44.9,516.6,48.4,516.6,52.7z M512.9,113.2V52.7c0-2.3-1.7-4.1-3.8-4.1c-2.1,0-3.8,1.8-3.8,4.1v60.4c0,2.3,1.7,4.1,3.8,4.1
			C511.2,117.3,512.9,115.4,512.9,113.2z"/>
		<path class="st0" d="M525.9,103.8h-11.2V62.1h11.2c3.4,0,6.1,2.7,6.1,6.1v29.4C532,101.1,529.3,103.8,525.9,103.8z"/>
		<path class="st1" d="M525.9,103.8h-5.2c3.4,0,6.1-2.7,6.1-6.1V68.2c0-3.4-2.7-6.1-6.1-6.1h5.2c3.4,0,6.1,2.7,6.1,6.1v29.4
			C532,101.1,529.3,103.8,525.9,103.8z"/>
		<path d="M533.9,68.2v29.4c0,4.4-3.6,8-8,8h-11.2c-1,0-1.9-0.8-1.9-1.9V62.1c0-1,0.8-1.9,1.9-1.9h11.2
			C530.3,60.2,533.9,63.8,533.9,68.2z M516.6,101.9h9.3c2.3,0,4.3-1.9,4.3-4.3V68.2c0-2.3-1.9-4.3-4.3-4.3h-9.3V101.9z"/>
		<rect x="467.9" y="78.9" class="st1" width="13.3" height="8.2"/>
		<rect x="467.9" y="83" class="st0" width="13.3" height="4.1"/>
		<path d="M483.1,78.9V87c0,1-0.8,1.9-1.9,1.9h-13.3c-1,0-1.9-0.8-1.9-1.9v-8.2c0-1,0.8-1.9,1.9-1.9h13.3
			C482.2,77,483.1,77.8,483.1,78.9z M469.8,85.2h9.5v-4.4h-9.5V85.2z"/>
		<line class="st0" x1="522.7" y1="95.5" x2="522.7" y2="70.4"/>
		<path d="M522.7,68.5c-1,0-1.9,0.8-1.9,1.9v25.2c0,1,0.8,1.9,1.9,1.9c1,0,1.9-0.8,1.9-1.9V70.4C524.6,69.3,523.8,68.5,522.7,68.5z"
			/>
		<path d="M422.4,129.7l-14.5,14.5c-0.7,0.7-0.7,1.9,0,2.7c0.4,0.4,0.8,0.6,1.3,0.6c0.5,0,1-0.2,1.3-0.6l14.5-14.5
			c0.7-0.7,0.7-1.9,0-2.7C424.3,128.9,423.2,128.9,422.4,129.7z"/>
		<path d="M444.7,137.4c-1,0-1.9,0.8-1.9,1.9v20.6c0,1,0.8,1.9,1.9,1.9c1,0,1.9-0.8,1.9-1.9v-20.6
			C446.6,138.2,445.8,137.4,444.7,137.4z"/>
		<path d="M466.7,128.9c-0.7-0.7-1.9-0.7-2.7,0c-0.7,0.7-0.7,1.9,0,2.7l14.5,14.5c0.4,0.4,0.8,0.5,1.3,0.5c0.5,0,1-0.2,1.3-0.5
			c0.7-0.7,0.7-1.9,0-2.7L466.7,128.9z"/>
		<path d="M444.4,28.5c1,0,1.9-0.8,1.9-1.9V6.1c0-1-0.8-1.9-1.9-1.9c-1,0-1.9,0.8-1.9,1.9v20.6C442.5,27.7,443.4,28.5,444.4,28.5z"
			/>
		<path d="M422.4,37c0.4,0.4,0.8,0.6,1.3,0.6c0.5,0,1-0.2,1.3-0.6c0.7-0.7,0.7-1.9,0-2.7l-14.5-14.5c-0.7-0.7-1.9-0.7-2.7,0
			c-0.7,0.7-0.7,1.9,0,2.7L422.4,37z"/>
		<path d="M465.4,36.8c0.5,0,1-0.2,1.3-0.6l14.5-14.5c0.7-0.7,0.7-1.9,0-2.7c-0.7-0.7-1.9-0.7-2.7,0l-14.5,14.5
			c-0.7,0.7-0.7,1.9,0,2.7C464.5,36.6,464.9,36.8,465.4,36.8z"/>
		<path class="st0" d="M337.6,91.2h31.4V74.7h-31.4c-4.1,0-7.4,3.3-7.4,7.4v1.6C330.2,87.9,333.5,91.2,337.6,91.2z"/>
		<path class="st1" d="M337.6,91.2h31.4v-5h-27.8c-4.1,0-7.4-3.3-7.4-7.4v-1.6c0-0.5,0-0.9,0.1-1.4c-2.2,1.3-3.8,3.7-3.8,6.4v1.6
			C330.2,87.9,333.5,91.2,337.6,91.2z"/>
		<path d="M337.6,72.8h31.4c1,0,1.9,0.8,1.9,1.9v16.5c0,1-0.8,1.9-1.9,1.9h-31.4c-5.1,0-9.3-4.2-9.3-9.3v-1.6
			C328.3,77,332.5,72.8,337.6,72.8z M367.2,76.6h-29.5c-3.1,0-5.5,2.5-5.5,5.5v1.6c0,3.1,2.5,5.5,5.5,5.5h29.5V76.6z"/>
		<path class="st0" d="M364.6,103.8h11.2V62.1h-11.2c-3.4,0-6.1,2.7-6.1,6.1v29.4C358.4,101.1,361.2,103.8,364.6,103.8z"/>
		<path class="st1" d="M364.6,103.8h5.2c-3.4,0-6.1-2.7-6.1-6.1V68.2c0-3.4,2.7-6.1,6.1-6.1h-5.2c-3.4,0-6.1,2.7-6.1,6.1v29.4
			C358.4,101.1,361.2,103.8,364.6,103.8z"/>
		<path d="M364.6,60.2h11.2c1,0,1.9,0.8,1.9,1.9v41.7c0,1-0.8,1.9-1.9,1.9h-11.2c-4.4,0-8-3.6-8-8V68.2
			C356.5,63.8,360.1,60.2,364.6,60.2z M373.8,64h-9.3c-2.3,0-4.3,1.9-4.3,4.3v29.4c0,2.3,1.9,4.3,4.3,4.3h9.3V64z"/>
		<line class="st0" x1="367.7" y1="95.5" x2="367.7" y2="70.4"/>
		<path d="M367.7,68.5c1,0,1.9,0.8,1.9,1.9v25.2c0,1-0.8,1.9-1.9,1.9c-1,0-1.9-0.8-1.9-1.9V70.4C365.8,69.3,366.7,68.5,367.7,68.5z"
			/>
		<path class="st0" d="M415.5,49.1h-32c-4.3,0-7.8,3.5-7.8,7.8v52.2c0,4.3,3.5,7.8,7.8,7.8h32V49.1z"/>
		<rect x="405.6" y="49.1" class="st1" width="11.3" height="67.7"/>
		<path d="M415.5,118.7h-32c-5.3,0-9.6-4.3-9.6-9.6V56.8c0-5.3,4.3-9.6,9.6-9.6h32c1,0,1.9,0.8,1.9,1.9v67.7
			C417.4,117.8,416.5,118.7,415.5,118.7z M383.5,51c-3.2,0-5.9,2.6-5.9,5.9v52.2c0,3.2,2.6,5.9,5.9,5.9h30.2V51H383.5z"/>
		<path class="st0" d="M422.5,113.2c0,3.3-2.5,6-5.6,6l0,0c-3.1,0-5.7-2.7-5.7-6V52.7c0-3.3,2.5-6,5.7-6l0,0c3.1,0,5.7,2.7,5.7,6
			L422.5,113.2z"/>
		<path class="st1" d="M416.9,46.7c-1,0-2,0.3-2.8,0.8c1.7,1,2.8,3,2.8,5.2l0,60.4c0,2.2-1.1,4.2-2.8,5.2c0.8,0.5,1.8,0.8,2.8,0.8
			c3.1,0,5.6-2.7,5.6-6l0-60.4C422.5,49.4,420,46.7,416.9,46.7z"/>
		<path d="M416.9,121c-4.2,0-7.5-3.5-7.5-7.9V52.7c0-4.3,3.4-7.9,7.5-7.9c4.2,0,7.5,3.5,7.5,7.9l0,60.4
			C424.4,117.5,421,121,416.9,121z M416.9,48.6c-2.1,0-3.8,1.8-3.8,4.1v60.4c0,2.3,1.7,4.1,3.8,4.1c2.1,0,3.8-1.8,3.8-4.1l0-60.4
			C420.7,50.5,419,48.6,416.9,48.6z"/>
		<path d="M400.4,93.6h-13c-1,0-1.9,0.8-1.9,1.9c0,1,0.8,1.9,1.9,1.9h13c1,0,1.9-0.8,1.9-1.9C402.3,94.4,401.5,93.6,400.4,93.6z"/>
		<path d="M387.4,89h13c1,0,1.9-0.8,1.9-1.9c0-1-0.8-1.9-1.9-1.9h-13c-1,0-1.9,0.8-1.9,1.9C385.6,88.2,386.4,89,387.4,89z"/>
		<path d="M387.4,80.7h13c1,0,1.9-0.8,1.9-1.9c0-1-0.8-1.9-1.9-1.9h-13c-1,0-1.9,0.8-1.9,1.9C385.6,79.8,386.4,80.7,387.4,80.7z"/>
		<path d="M387.4,72.3h13c1,0,1.9-0.8,1.9-1.9c0-1-0.8-1.9-1.9-1.9h-13c-1,0-1.9,0.8-1.9,1.9C385.6,71.5,386.4,72.3,387.4,72.3z"/>
	</g>
</g>
</svg>
