<?xml version="1.0" encoding="utf-8"?>
<!-- Generator: Adobe Illustrator 23.1.1, SVG Export Plug-In . SVG Version: 6.00 Build 0)  -->
<svg version="1.1" id="Capa_1" xmlns="http://www.w3.org/2000/svg" xmlns:xlink="http://www.w3.org/1999/xlink" x="0px" y="0px"
	 viewBox="0 0 497.88 85.04" style="enable-background:new 0 0 497.88 85.04;" xml:space="preserve">
<style type="text/css">
	.st0{fill:none;}
</style>
<g id="XMLID_1_">
	<path id="XMLID_636_" d="M36.32,84.97c-11.65,0-20.62-2.55-26.9-7.65C3.14,72.22,0,65.25,0,56.42h21.93
		c0.07,4.27,1.33,7.2,3.77,8.79c2.44,1.6,6.28,2.4,11.54,2.4c7.61,0,11.42-2.44,11.42-7.31c0-2.28-0.88-3.96-2.63-5.03
		c-1.75-1.07-5.14-2.02-10.17-2.86l-6.4-1.03C10.66,48.35,1.26,39.59,1.26,25.13c0-7.69,2.87-13.8,8.62-18.33
		C15.63,2.27,23.87,0,34.61,0c10.81,0,19.19,2.27,25.13,6.8c5.94,4.53,9.14,11.21,9.59,20.04H47.85c-0.15-3.27-1.26-5.67-3.31-7.2
		c-2.06-1.52-5.25-2.28-9.59-2.28c-6.93,0-10.39,2.25-10.39,6.74c0,2.28,0.87,4,2.63,5.14c1.75,1.14,4.83,2.09,9.25,2.86l6.74,1.14
		c10.13,1.68,17.49,4.51,22.1,8.51c4.61,4,6.91,9.61,6.91,16.85c0,8.6-3.16,15.15-9.48,19.64C56.38,82.73,47.59,84.97,36.32,84.97z"
		/>
	<path id="XMLID_634_" d="M116.01,84.97c-10.81,0-19.57-2.86-26.27-8.57c-6.85-5.71-10.28-13.86-10.28-24.44V1.83h22.84v50.37
		c0,4.27,1.2,7.54,3.6,9.82c2.4,2.28,5.77,3.43,10.11,3.43c4.34,0,7.71-1.14,10.11-3.43c2.4-2.28,3.6-5.56,3.6-9.82V1.83h22.84
		v50.14c0,10.74-3.31,18.92-9.94,24.56C135.92,82.16,127.05,84.97,116.01,84.97z"/>
	<path id="XMLID_632_" d="M252.04,1.8h70.81v20.33h-23.98v60.99h-22.84V22.13h-23.98V1.8z"/>
	<polygon id="XMLID_228_" points="373.32,22.13 397.31,22.13 406.22,22.13 406.22,1.8 397.31,1.8 373.32,1.8 333.13,1.8 
		333.13,83.11 373.32,83.11 397.31,83.11 406.22,83.11 406.22,62.78 397.31,62.78 373.32,62.78 355.97,62.78 355.97,51.82 
		373.32,51.82 393.66,51.82 402.57,51.82 402.57,32.86 393.66,32.86 373.32,32.86 355.97,32.86 355.97,22.13 	"/>
	<rect id="XMLID_623_" x="416.5" y="1.8" width="81.38" height="81.32"/>
	<rect id="XMLID_604_" x="416.5" y="1.8" class="st0" width="81.38" height="81.38"/>
	<path id="XMLID_603_" d="M240.39,47.28c-2.55-3.65-5.92-6.24-10.11-7.77c7.08-3.27,10.62-8.95,10.62-17.02
		c0-5.86-2.21-10.77-6.62-14.73c-4.42-3.96-11.58-5.94-21.47-5.94h-1.1h-3.41h-9.54h-6.58h-29.34v81.32h35.61h0.31h9.54h0.45h4.86
		c10.13,0,17.76-2.09,22.9-6.28c5.14-4.19,7.71-10.09,7.71-17.7C244.22,54.9,242.94,50.94,240.39,47.28z M185.68,19.64h6.5h6.58
		h9.54h2.91h0.5v-0.01c2.62-0.06,4.5,1.03,5.61,3.32c1.18,2.44,1.18,4.87,0,7.31c-1.11,2.29-2.99,3.39-5.61,3.32v-0.01h-0.5h-2.91
		h-9.54h-6.58h-6.5V19.64z M212.35,65.21h-0.64h-3.41h-9.54h-6.58h-6.5V50.37h6.5h6.58h9.54h3.41h0.64c5.48,0,8.22,2.48,8.22,7.42
		C220.58,62.74,217.83,65.21,212.35,65.21z"/>
</g>
</svg>
